<mxfile host="65bd71144e" modified="2021-01-18T17:51:42.754Z" agent="5.0 (Macintosh; Intel Mac OS X 11_0_0) AppleWebKit/537.36 (KHTML, like Gecko) Code/1.52.1 Chrome/83.0.4103.122 Electron/9.3.5 Safari/537.36" version="14.2.4" etag="k999itxa444qDLjJICVf" type="embed">
    <diagram id="baP4Zu5-Z4kkj23t-I2K" name="Page-1">
        <mxGraphModel dx="839" dy="481" grid="1" gridSize="10" guides="1" tooltips="1" connect="1" arrows="1" fold="1" page="1" pageScale="1" pageWidth="827" pageHeight="1169" math="0" shadow="0">
            <root>
                <mxCell id="0"/>
                <mxCell id="1" parent="0"/>
                <mxCell id="2" value="Games Hub App Data Flow" style="swimlane;html=1;childLayout=stackLayout;resizeParent=1;resizeParentMax=0;startSize=20;" vertex="1" parent="1">
                    <mxGeometry x="80" y="10" width="720" height="420" as="geometry"/>
                </mxCell>
                <mxCell id="3" value="CLIENT" style="swimlane;html=1;startSize=20;" vertex="1" parent="2">
                    <mxGeometry y="20" width="220" height="400" as="geometry"/>
                </mxCell>
                <mxCell id="4" value="SERVER" style="swimlane;html=1;startSize=20;" vertex="1" parent="2">
                    <mxGeometry x="220" y="20" width="230" height="400" as="geometry"/>
                </mxCell>
                <mxCell id="5" value="DATABASE" style="swimlane;html=1;startSize=20;" vertex="1" parent="2">
                    <mxGeometry x="450" y="20" width="270" height="400" as="geometry"/>
                </mxCell>
            </root>
        </mxGraphModel>
    </diagram>
</mxfile>